User Type,Username,Date,Text
,2max2,2006-01-17T16:28Z,right something about the movie. tak. DANSKER
,bengi4life91,2007-12-02T13:28Z,i wish ppl wud comment so i cud tell if de torrent is good
,DeegitS,2008-03-24T05:04Z,seed plz!! seed!!
,Geemonster,2009-01-28T00:09Z,Thanx! in advance.
,bhobson333,2009-04-26T14:32Z,"It's good.

General
Complete name                    : J:\bittorrent\Friday - Ice Cube - Chris Tucker Dvd Rip Hq.avi
Format                           : AVI
Format/Info                      : Audio Video Interleave
File size                        : 691 MiB
Duration                         : 4h 34mn
Overall bit rate                 : 352 Kbps

Video
Format                           : MPEG-4 Visual
Codec ID                         : DIV3
Codec ID/Hint                    : DivX 3 Low
Duration                         : 1h 31mn
Bit rate                         : 922 Kbps
Width                            : 640 pixels
Height                           : 480 pixels
Display aspect ratio             : 4/3
Frame rate                       : 25.000 fps
Resolution                       : 24 bits
Bits/(Pixel*Frame)               : 0.120
Stream size                      : 604 MiB (87%)
Title                            : Videostream

Audio
Format                           : MPEG Audio
Format version                   : Version 1
Format profile                   : Layer 3
Codec ID                         : 55
Codec ID/Hint                    : MP3
Duration                         : 4h 34mn
Bit rate mode                    : Constant
Bit rate                         : 128 Kbps
Channel(s)                       : 2 channels
Sampling rate                    : 48.0 KHz
Resolution                       : 16 bits
Stream size                      : 83.8 MiB (12%)
Alignment                        : Split accross interleaves
Interleave, duration             : 1000 ms (25.00 video frames)
Title                            : Audiostream 1"
